HIERARCHY
ROOT Hips
{
	OFFSET 0.000000 100.481300 0.000000
	CHANNELS 6 Xposition Yposition Zposition Xrotation Yrotation Zrotation
	JOINT Spine
	{
		OFFSET -0.279200 12.230698 -2.892100
		CHANNELS 3 Xrotation Yrotation Zrotation
		JOINT Spine1
		{
			OFFSET -0.325700 14.269203 -3.374200
			CHANNELS 3 Xrotation Yrotation Zrotation
			JOINT Spine2
			{
				OFFSET -0.372300 16.307602 -0.352600
				CHANNELS 3 Xrotation Yrotation Zrotation
				JOINT Neck
				{
					OFFSET -0.418800 17.814194 8.416900
					CHANNELS 3 Xrotation Yrotation Zrotation
					JOINT Head
					{
						OFFSET 0.000000 7.031097 3.806800
						CHANNELS 3 Xrotation Yrotation Zrotation
						JOINT HeadTop_End
						{
							OFFSET 0.000000 24.646606 12.978600
							CHANNELS 3 Xrotation Yrotation Zrotation
							End Site
							{
								OFFSET 0.000000 27.854965 0.000000
							}
						}
					}
				}
				JOINT LeftShoulder
				{
					OFFSET 16.952999 14.495407 -7.737500
					CHANNELS 3 Xrotation Yrotation Zrotation
					JOINT LeftArm
					{
						OFFSET 9.308998 -2.777710 0.208600
						CHANNELS 3 Xrotation Yrotation Zrotation
						JOINT LeftForeArm
						{
							OFFSET 29.972298 0.000000 0.000000
							CHANNELS 3 Xrotation Yrotation Zrotation
							JOINT LeftHand
							{
								OFFSET 26.026505 0.000000 0.000000
								CHANNELS 3 Xrotation Yrotation Zrotation
								JOINT LeftHandThumb1
								{
									OFFSET 12.240501 -7.147949 9.207150
									CHANNELS 3 Xrotation Yrotation Zrotation
									JOINT LeftHandThumb2
									{
										OFFSET 4.138618 -2.389435 2.389433
										CHANNELS 3 Xrotation Yrotation Zrotation
										JOINT LeftHandThumb3
										{
											OFFSET 2.726913 -1.574387 1.574386
											CHANNELS 3 Xrotation Yrotation Zrotation
											JOINT LeftHandThumb4
											{
												OFFSET 3.941010 -2.275345 2.275342
												CHANNELS 3 Xrotation Yrotation Zrotation
												End Site
												{
													OFFSET -0.005798 5.087799 0.009903
												}
											}
										}
									}
								}
								JOINT LeftHandIndex1
								{
									OFFSET 24.424698 -1.985611 5.953459
									CHANNELS 3 Xrotation Yrotation Zrotation
									JOINT LeftHandIndex2
									{
										OFFSET 6.426697 0.000000 0.000000
										CHANNELS 3 Xrotation Yrotation Zrotation
										JOINT LeftHandIndex3
										{
											OFFSET 5.337898 0.000000 0.000000
											CHANNELS 3 Xrotation Yrotation Zrotation
											JOINT LeftHandIndex4
											{
												OFFSET 4.409401 0.000000 0.000000
												CHANNELS 3 Xrotation Yrotation Zrotation
												End Site
												{
													OFFSET 0.000000 4.409363 0.014373
												}
											}
										}
									}
								}
								JOINT LeftHandMiddle1
								{
									OFFSET 23.810104 0.000000 0.000000
									CHANNELS 3 Xrotation Yrotation Zrotation
									JOINT LeftHandMiddle2
									{
										OFFSET 7.176498 0.000000 0.000000
										CHANNELS 3 Xrotation Yrotation Zrotation
										JOINT LeftHandMiddle3
										{
											OFFSET 6.774902 0.000000 0.000000
											CHANNELS 3 Xrotation Yrotation Zrotation
											JOINT LeftHandMiddle4
											{
												OFFSET 5.403328 0.000000 0.000000
												CHANNELS 3 Xrotation Yrotation Zrotation
												End Site
												{
													OFFSET -0.027702 5.403244 0.017414
												}
											}
										}
									}
								}
								JOINT LeftHandRing1
								{
									OFFSET 22.908401 -0.839279 -6.020567
									CHANNELS 3 Xrotation Yrotation Zrotation
									JOINT LeftHandRing2
									{
										OFFSET 6.337502 0.000000 0.000000
										CHANNELS 3 Xrotation Yrotation Zrotation
										JOINT LeftHandRing3
										{
											OFFSET 5.779297 0.000000 0.000000
											CHANNELS 3 Xrotation Yrotation Zrotation
											JOINT LeftHandRing4
											{
												OFFSET 4.965698 0.000000 0.000000
												CHANNELS 3 Xrotation Yrotation Zrotation
												End Site
												{
													OFFSET 0.000000 4.965668 0.016186
												}
											}
										}
									}
								}
								JOINT LeftHandPinky1
								{
									OFFSET 20.037003 -1.530319 -10.950146
									CHANNELS 3 Xrotation Yrotation Zrotation
									JOINT LeftHandPinky2
									{
										OFFSET 5.254700 0.000000 0.000000
										CHANNELS 3 Xrotation Yrotation Zrotation
										JOINT LeftHandPinky3
										{
											OFFSET 4.810204 0.000000 0.000000
											CHANNELS 3 Xrotation Yrotation Zrotation
											JOINT LeftHandPinky4
											{
												OFFSET 3.647202 0.000000 0.000000
												CHANNELS 3 Xrotation Yrotation Zrotation
												End Site
												{
													OFFSET 0.000000 3.647186 0.011889
												}
											}
										}
									}
								}
							}
						}
					}
				}
				JOINT RightShoulder
				{
					OFFSET -15.141001 14.495407 -7.737500
					CHANNELS 3 Xrotation Yrotation Zrotation
					JOINT RightArm
					{
						OFFSET -9.308998 -2.777710 0.208500
						CHANNELS 3 Xrotation Yrotation Zrotation
						JOINT RightForeArm
						{
							OFFSET -29.972300 0.000000 0.000000
							CHANNELS 3 Xrotation Yrotation Zrotation
							JOINT RightHand
							{
								OFFSET -26.026505 0.000000 0.000000
								CHANNELS 3 Xrotation Yrotation Zrotation
								JOINT RightHandThumb1
								{
									OFFSET -12.240601 -7.148026 9.207092
									CHANNELS 3 Xrotation Yrotation Zrotation
									JOINT RightHandThumb2
									{
										OFFSET -4.138618 -2.389435 2.389433
										CHANNELS 3 Xrotation Yrotation Zrotation
										JOINT RightHandThumb3
										{
											OFFSET -2.726974 -1.574417 1.574421
											CHANNELS 3 Xrotation Yrotation Zrotation
											JOINT RightHandThumb4
											{
												OFFSET -3.941010 -2.275345 2.275343
												CHANNELS 3 Xrotation Yrotation Zrotation
												End Site
												{
													OFFSET 0.005814 5.087799 0.009927
												}
											}
										}
									}
								}
								JOINT RightHandIndex1
								{
									OFFSET -24.424698 -1.985657 5.953444
									CHANNELS 3 Xrotation Yrotation Zrotation
									JOINT RightHandIndex2
									{
										OFFSET -6.426697 0.000000 0.000000
										CHANNELS 3 Xrotation Yrotation Zrotation
										JOINT RightHandIndex3
										{
											OFFSET -5.337898 0.000000 0.000000
											CHANNELS 3 Xrotation Yrotation Zrotation
											JOINT RightHandIndex4
											{
												OFFSET -4.409401 0.000000 0.000000
												CHANNELS 3 Xrotation Yrotation Zrotation
												End Site
												{
													OFFSET 0.000000 4.409363 0.014408
												}
											}
										}
									}
								}
								JOINT RightHandMiddle1
								{
									OFFSET -23.810097 0.000000 0.000000
									CHANNELS 3 Xrotation Yrotation Zrotation
									JOINT RightHandMiddle2
									{
										OFFSET -7.176498 0.000000 0.000000
										CHANNELS 3 Xrotation Yrotation Zrotation
										JOINT RightHandMiddle3
										{
											OFFSET -6.774902 0.000000 0.000000
											CHANNELS 3 Xrotation Yrotation Zrotation
											JOINT RightHandMiddle4
											{
												OFFSET -5.403328 0.000000 0.000000
												CHANNELS 3 Xrotation Yrotation Zrotation
												End Site
												{
													OFFSET 0.027702 5.403244 0.017457
												}
											}
										}
									}
								}
								JOINT RightHandRing1
								{
									OFFSET -22.908302 -0.839325 -6.020576
									CHANNELS 3 Xrotation Yrotation Zrotation
									JOINT RightHandRing2
									{
										OFFSET -6.337502 0.000000 0.000000
										CHANNELS 3 Xrotation Yrotation Zrotation
										JOINT RightHandRing3
										{
											OFFSET -5.779297 0.000000 0.000000
											CHANNELS 3 Xrotation Yrotation Zrotation
											JOINT RightHandRing4
											{
												OFFSET -4.965698 0.000000 0.000000
												CHANNELS 3 Xrotation Yrotation Zrotation
												End Site
												{
													OFFSET 0.000000 4.965668 0.016226
												}
											}
										}
									}
								}
								JOINT RightHandPinky1
								{
									OFFSET -20.037003 -1.530334 -10.950259
									CHANNELS 3 Xrotation Yrotation Zrotation
									JOINT RightHandPinky2
									{
										OFFSET -5.254700 0.000000 0.000000
										CHANNELS 3 Xrotation Yrotation Zrotation
										JOINT RightHandPinky3
										{
											OFFSET -4.810204 0.000000 0.000000
											CHANNELS 3 Xrotation Yrotation Zrotation
											JOINT RightHandPinky4
											{
												OFFSET -3.647202 0.000000 0.000000
												CHANNELS 3 Xrotation Yrotation Zrotation
												End Site
												{
													OFFSET 0.000000 3.647186 0.011917
												}
											}
										}
									}
								}
							}
						}
					}
				}
			}
		}
	}
	JOINT LeftUpLeg
	{
		OFFSET 15.427100 -6.655098 0.678600
		CHANNELS 3 Xrotation Yrotation Zrotation
		JOINT LeftLeg
		{
			OFFSET 4.081073 -39.591068 13.024000
			CHANNELS 3 Xrotation Yrotation Zrotation
			JOINT LeftFoot
			{
				OFFSET -4.081074 -37.707932 -15.979700
				CHANNELS 3 Xrotation Yrotation Zrotation
				JOINT LeftToeBase
				{
					OFFSET 5.346399 -15.068900 20.645000
					CHANNELS 3 Xrotation Yrotation Zrotation
					JOINT LeftToe_End
					{
						OFFSET 2.754700 0.931300 11.300900
						CHANNELS 3 Xrotation Yrotation Zrotation
						End Site
						{
							OFFSET 0.000000 11.669021 0.000000
						}
					}
				}
			}
		}
	}
	JOINT RightUpLeg
	{
		OFFSET -15.569500 -6.655098 0.678600
		CHANNELS 3 Xrotation Yrotation Zrotation
		JOINT RightLeg
		{
			OFFSET -4.081825 -39.591045 13.023800
			CHANNELS 3 Xrotation Yrotation Zrotation
			JOINT RightFoot
			{
				OFFSET 4.081824 -37.707954 -15.979600
				CHANNELS 3 Xrotation Yrotation Zrotation
				JOINT RightToeBase
				{
					OFFSET -5.346400 -15.068900 20.645000
					CHANNELS 3 Xrotation Yrotation Zrotation
					JOINT RightToe_End
					{
						OFFSET -2.754700 0.931300 11.300900
						CHANNELS 3 Xrotation Yrotation Zrotation
						End Site
						{
							OFFSET 0.000000 11.669021 0.000000
						}
					}
				}
			}
		}
	}
}
MOTION
Frames: 4
Frame Time: 0.033333
1.747327 77.340164 8.076729 -9.172887 -40.556823 -8.324607 21.163949 2.214763 -0.978591 4.872689 0.685724 -0.223318 4.872347 0.688639 -0.232706 14.880974 3.517671 -3.342649 -11.045928 20.440429 -2.669118 -0.000000 0.000000 0.000001 2.929081 -27.740866 3.708685 -51.780972 31.735146 -21.963932 0.000091 -109.428810 0.000092 1.312703 3.599960 13.700342 0.607138 7.001981 4.727549 10.304650 25.774754 -3.254114 9.775394 25.185286 -3.464402 0.000001 -0.000000 0.000001 3.491526 7.977248 -44.296420 2.321308 5.158908 -48.428480 0.271325 1.917536 -16.106665 -0.000003 0.000000 -0.000003 2.725444 5.846679 -48.350281 3.172322 5.800194 -57.322779 0.513876 2.614643 -22.234788 -0.000003 -0.000003 0.000003 2.548627 5.052853 -56.659469 2.641700 5.425063 -51.901084 0.662741 2.952290 -25.299528 -0.000001 -0.000000 0.000000 5.119341 6.553934 -57.116712 2.870428 1.507664 -54.394923 0.528097 2.649087 -22.544272 -0.000005 -0.000001 -0.000001 2.133446 19.419944 -9.513738 -43.190083 22.211688 75.400282 0.000079 105.190125 -0.000066 37.733793 -4.364615 -9.078843 -7.582589 -9.119004 -3.706231 8.266241 -16.754845 0.296937 2.002414 -12.898329 -4.925586 0.000000 -0.000002 -0.000002 -1.802794 -0.470013 45.961637 2.748910 -5.540641 52.748506 0.331503 -2.125318 17.728948 0.000000 0.000001 -0.000000 1.504075 -4.243122 49.989345 3.308694 -5.922735 58.349521 0.616018 -2.850743 24.129767 -0.000002 -0.000001 0.000001 4.622830 -8.399452 51.967259 2.546365 -5.381319 50.620499 0.482266 -2.983922 24.868818 0.000001 0.000000 -0.000001 6.389963 -7.548450 59.594719 2.981336 -5.709108 55.119592 0.679980 -3.003816 25.504667 -0.000000 0.000001 -0.000000 -36.660593 4.047183 28.183007 46.271796 -2.364023 1.961574 -1.254687 1.483144 -17.171743 -0.000027 -0.000007 0.000006 0.000000 0.000000 0.000000 -7.978593 -7.141178 -14.752350 48.798884 1.739513 -3.875334 -32.026149 -6.861004 17.079815 -0.000029 -0.000015 -0.000008 -0.000000 -0.000002 -0.000000 
1.802079 77.453659 8.215624 -9.011555 -40.716045 -8.289752 21.271279 2.204235 -0.996910 4.899501 0.684964 -0.232236 4.899209 0.687872 -0.241559 14.932590 3.585178 -3.201149 -11.102007 20.692746 -2.301289 -0.000001 -0.000001 0.000000 2.908483 -27.539087 3.719140 -50.969669 31.808584 -23.182929 0.000033 -109.816861 0.000062 1.385554 3.494765 13.673731 0.586483 6.980160 4.772871 10.225930 25.564754 -3.193236 9.673567 25.008464 -3.403545 0.000004 -0.000000 -0.000001 3.408945 7.911511 -43.905091 2.318313 5.156276 -48.395162 0.271656 1.918652 -16.116274 0.000002 -0.000002 0.000002 2.625206 5.700589 -47.945022 3.155119 5.789189 -57.152400 0.514187 2.615388 -22.241461 0.000000 0.000000 -0.000001 2.473666 4.957140 -56.295372 2.627990 5.414324 -51.755967 0.671219 2.970150 -25.463744 -0.000004 0.000001 0.000001 5.181377 6.669063 -56.790557 2.850981 1.493700 -54.196342 0.527884 2.648604 -22.539841 0.000001 -0.000000 0.000001 2.145971 19.610598 -8.967899 -43.093316 22.276923 74.895941 -0.000038 104.961791 0.000032 37.657842 -4.323837 -8.762771 -7.181203 -9.710132 -3.856452 8.272402 -16.770010 0.298204 2.107139 -13.217408 -4.896689 -0.000000 0.000000 0.000001 -1.857981 -0.239159 45.254579 2.740496 -5.534267 52.661288 0.330631 -2.122523 17.705100 0.000000 -0.000000 -0.000000 1.397499 -4.076593 49.471497 3.291594 -5.912216 58.183130 0.617871 -2.847543 24.109154 0.000001 -0.000004 -0.000000 4.452772 -8.310000 51.276836 2.539622 -5.375797 50.548403 0.493499 -2.986858 24.916496 -0.000000 -0.000001 -0.000000 6.526603 -7.799022 58.794227 2.964805 -5.697579 54.953175 0.679529 -3.002867 25.496249 0.000001 0.000001 0.000001 -36.616467 4.113073 28.232799 46.212780 -2.308315 1.891446 -1.383415 1.501319 -17.112539 -0.000011 0.000014 -0.000002 0.000000 -0.000000 0.000000 -8.078091 -7.245530 -14.839088 48.492123 2.043162 -3.782596 -31.827848 -6.783089 16.963424 -0.000027 -0.000010 0.000001 -0.000000 0.000002 0.000000 
1.854525 78.194580 8.485825 -8.395962 -40.971713 -8.031763 21.127809 2.120585 -1.036442 4.877555 0.668036 -0.251461 4.877327 0.670902 -0.260406 14.952715 3.664141 -3.057476 -11.309715 20.902868 -1.769445 -0.000000 -0.000001 0.000001 2.851934 -27.248703 3.457614 -50.426344 32.037644 -23.863195 0.000025 -110.222991 0.000046 1.601094 3.454162 13.335699 0.546845 6.949974 4.883083 10.202138 25.499101 -3.173712 9.626175 24.925647 -3.375085 0.000000 0.000001 0.000001 3.384703 7.909292 -43.719293 2.313112 5.151676 -48.337317 0.272001 1.919876 -16.126823 -0.000001 -0.000000 0.000001 2.591915 5.651124 -47.770777 3.148856 5.785134 -57.090082 0.514315 2.615714 -22.244458 -0.000002 0.000001 0.000003 2.447074 4.921521 -56.160360 2.621359 5.409126 -51.685855 0.675378 2.978799 -25.543403 0.000002 0.000002 -0.000002 5.198234 6.707975 -56.699770 2.840503 1.486102 -54.088674 0.527672 2.648130 -22.535598 -0.000004 0.000002 0.000000 2.144774 19.667840 -8.713055 -42.778492 22.327733 74.750683 0.000074 105.222466 -0.000094 37.489819 -4.526743 -8.460860 -7.025133 -9.949747 -4.016666 8.277426 -16.782191 0.299264 2.152311 -13.353984 -4.885049 0.000001 -0.000003 -0.000005 -1.884016 -0.152272 44.993185 2.736907 -5.531507 52.623937 0.330019 -2.120688 17.689314 -0.000000 0.000000 -0.000001 1.358917 -4.016963 49.280413 3.286570 -5.909127 58.134575 0.618761 -2.846681 24.104059 -0.000000 -0.000001 0.000000 4.364065 -8.253160 51.010923 2.539483 -5.375678 50.547081 0.499650 -2.988622 24.943446 0.000000 0.000001 -0.000000 6.592072 -7.898121 58.500611 2.960137 -5.694342 54.906047 0.679979 -3.003802 25.504794 -0.000000 -0.000000 0.000001 -36.202000 4.458751 28.145087 45.180028 -1.901695 1.815747 -1.276545 1.489216 -17.006785 -0.000028 0.000000 -0.000001 0.000000 0.000000 -0.000000 -8.050341 -7.592836 -14.726569 46.952384 2.294085 -3.757106 -30.906719 -6.577103 16.887638 -0.000042 0.000009 0.000005 -0.000000 0.000000 -0.000000 
1.951036 79.331154 8.903168 -7.511704 -41.410020 -7.688863 20.713408 2.040931 -1.118714 4.796727 0.655670 -0.283187 4.796565 0.658446 -0.291753 14.942465 3.755364 -2.916927 -11.673578 21.064291 -1.067651 -0.000001 0.000000 0.000001 2.759726 -26.872999 2.924848 -50.639805 32.046025 -23.386566 -0.000002 -110.515302 -0.000003 1.864404 3.543050 12.728951 0.482811 6.902312 5.057725 10.216307 25.535934 -3.183463 9.626938 24.926861 -3.375473 0.000001 0.000002 0.000000 3.423418 7.971488 -43.774464 2.311405 5.150153 -48.318302 0.272345 1.921036 -16.136870 -0.000001 0.000001 -0.000003 2.621283 5.696293 -47.840848 3.155219 5.789239 -57.153315 0.514275 2.615624 -22.243616 -0.000001 -0.000002 0.000001 2.462009 4.939530 -56.269687 2.623202 5.410584 -51.705297 0.675592 2.979262 -25.547716 -0.000000 -0.000001 -0.000000 5.152490 6.646976 -56.843338 2.838693 1.484797 -54.070083 0.527616 2.647910 -22.533691 -0.000004 0.000003 0.000000 2.131055 19.598451 -8.762788 -42.342935 22.138940 74.850718 0.000082 106.069218 -0.000085 37.140779 -4.782677 -8.371813 -7.141063 -9.806390 -4.204981 8.280270 -16.789180 0.299854 2.147215 -13.336793 -4.887817 -0.000000 -0.000001 -0.000000 -1.888294 -0.223512 45.212400 2.738611 -5.532805 52.641695 0.329838 -2.120092 17.683949 0.000000 0.000002 -0.000000 1.391460 -4.083114 49.443661 3.292532 -5.912775 58.192290 0.620125 -2.847799 24.116032 -0.000001 -0.000001 -0.000000 4.357230 -8.225710 51.213308 2.545999 -5.381017 50.616394 0.501455 -2.989570 24.954127 0.000001 0.000001 0.000000 6.542752 -7.778999 58.675662 2.966094 -5.698476 54.966009 0.681272 -3.006569 25.529905 0.000001 -0.000001 -0.000001 -35.530839 5.046670 28.085168 43.552671 -1.380547 1.629638 -1.095255 1.468881 -16.775773 -0.000058 0.000009 0.000003 -0.000000 0.000002 0.000000 -7.940787 -8.053440 -14.431609 44.560366 2.554895 -3.876697 -29.452421 -6.301696 16.912873 -0.000018 -0.000000 0.000003 -0.000000 -0.000000 -0.000000 
